<svg xmlns="http://www.w3.org/2000/svg" xmlns:xlink="http://www.w3.org/1999/xlink" viewBox="0 0 512 128">
	<defs>
		<linearGradient id="a">
			<stop offset="0" stop-color="#a218e2"/>
			<stop offset="1" stop-color="#7343d1" stop-opacity=".4"/>
		</linearGradient>
		<linearGradient xlink:href="#a" id="b" x1="0" x2="512" y1="64" y2="64" gradientUnits="userSpaceOnUse"/>
	</defs>
	<path fill="url(#b)" d="M0 1h8l4 7-4 7H0Zm0 16h8l4 7-4 7H0ZM26 0l-4 7h-8l-4-7ZM14 9h8l4 7-4 7h-8l-4-7zm0 16h8l4 7-4 7h-8l-4-7zm0 16h8l4 7-4 7h-8l-4-7zm0 16h8l4 7-4 7h-8l-4-7zm0 16h8l4 7-4 7h-8l-4-7zm0 16h8l4 7-4 7h-8l-4-7zm0 16h8l4 7-4 7h-8l-4-7zm0 16h8l4 7H10ZM28 1h8l4 7-4 7h-8l-4-7Zm0 16h8l4 7-4 7h-8l-4-7zm0 16h8l4 7-4 7h-8l-4-7zm0 16h8l4 7-4 7h-8l-4-7zm0 16h8l4 7-4 7h-8l-4-7zm0 16h8l4 7-4 7h-8l-4-7zm0 16h8l4 7-4 7h-8l-4-7zm0 16h8l4 7-4 7h-8l-4-7zM54 0l-4 7h-8l-4-7ZM42 9h8l4 7-4 7h-8l-4-7zm0 16h8l4 7-4 7h-8l-4-7zm0 16h8l4 7-4 7h-8l-4-7zm0 16h8l4 7-4 7h-8l-4-7zm0 16h8l4 7-4 7h-8l-4-7zm0 16h8l4 7-4 7h-8l-4-7zm0 16h8l4 7-4 7h-8l-4-7zm0 16h8l4 7H38ZM56 1h8l4 7-4 7h-8l-4-7Zm0 16h8l4 7-4 7h-8l-4-7zm0 16h8l4 7-4 7h-8l-4-7zm0 16h8l4 7-4 7h-8l-4-7zm0 16h8l4 7-4 7h-8l-4-7zm0 16h8l4 7-4 7h-8l-4-7zm0 16h8l4 7-4 7h-8l-4-7zm0 16h8l4 7-4 7h-8l-4-7zM82 0l-4 7h-8l-4-7ZM70 9h8l4 7-4 7h-8l-4-7zm0 16h8l4 7-4 7h-8l-4-7zm0 16h8l4 7-4 7h-8l-4-7zm0 16h8l4 7-4 7h-8l-4-7zm0 16h8l4 7-4 7h-8l-4-7zm0 16h8l4 7-4 7h-8l-4-7zm0 16h8l4 7-4 7h-8l-4-7zm0 16h8l4 7H66ZM84 1h8l4 7-4 7h-8l-4-7Zm0 16h8l4 7-4 7h-8l-4-7zm0 16h8l4 7-4 7h-8l-4-7zm0 16h8l4 7-4 7h-8l-4-7zm0 16h8l4 7-4 7h-8l-4-7zm0 16h8l4 7-4 7h-8l-4-7zm0 16h8l4 7-4 7h-8l-4-7zm0 16h8l4 7-4 7h-8l-4-7zM110 0l-4 7h-8l-4-7ZM98 9h8l4 7-4 7h-8l-4-7zm0 16h8l4 7-4 7h-8l-4-7zm0 16h8l4 7-4 7h-8l-4-7zm0 16h8l4 7-4 7h-8l-4-7zm0 16h8l4 7-4 7h-8l-4-7zm0 16h8l4 7-4 7h-8l-4-7zm0 16h8l4 7-4 7h-8l-4-7zm0 16h8l4 7H94ZM112 1h8l4 7-4 7h-8l-4-7zm0 16h8l4 7-4 7h-8l-4-7zm0 16h8l4 7-4 7h-8l-4-7zm0 16h8l4 7-4 7h-8l-4-7zm0 16h8l4 7-4 7h-8l-4-7zm0 16h8l4 7-4 7h-8l-4-7zm0 16h8l4 7-4 7h-8l-4-7zm0 16h8l4 7-4 7h-8l-4-7zM138 0l-4 7h-8l-4-7zm-12 9h8l4 7-4 7h-8l-4-7zm0 16h8l4 7-4 7h-8l-4-7zm0 16h8l4 7-4 7h-8l-4-7zm0 16h8l4 7-4 7h-8l-4-7zm0 16h8l4 7-4 7h-8l-4-7zm0 16h8l4 7-4 7h-8l-4-7zm0 16h8l4 7-4 7h-8l-4-7zm0 16h8l4 7h-16zM140 1h8l4 7-4 7h-8l-4-7zm0 16h8l4 7-4 7h-8l-4-7zm0 16h8l4 7-4 7h-8l-4-7zm0 16h8l4 7-4 7h-8l-4-7zm0 16h8l4 7-4 7h-8l-4-7zm0 16h8l4 7-4 7h-8l-4-7zm0 16h8l4 7-4 7h-8l-4-7zm0 16h8l4 7-4 7h-8l-4-7zM166 0l-4 7h-8l-4-7zm-12 9h8l4 7-4 7h-8l-4-7zm0 16h8l4 7-4 7h-8l-4-7zm0 16h8l4 7-4 7h-8l-4-7zm0 16h8l4 7-4 7h-8l-4-7zm0 16h8l4 7-4 7h-8l-4-7zm0 16h8l4 7-4 7h-8l-4-7zm0 16h8l4 7-4 7h-8l-4-7zm0 16h8l4 7h-16zM168 1h8l4 7-4 7h-8l-4-7zm0 16h8l4 7-4 7h-8l-4-7zm0 16h8l4 7-4 7h-8l-4-7zm0 16h8l4 7-4 7h-8l-4-7zm0 16h8l4 7-4 7h-8l-4-7zm0 16h8l4 7-4 7h-8l-4-7zm0 16h8l4 7-4 7h-8l-4-7zm0 16h8l4 7-4 7h-8l-4-7zM194 0l-4 7h-8l-4-7zm-12 9h8l4 7-4 7h-8l-4-7zm0 16h8l4 7-4 7h-8l-4-7zm0 16h8l4 7-4 7h-8l-4-7zm0 16h8l4 7-4 7h-8l-4-7zm0 16h8l4 7-4 7h-8l-4-7zm0 16h8l4 7-4 7h-8l-4-7zm0 16h8l4 7-4 7h-8l-4-7zm0 16h8l4 7h-16zM196 1h8l4 7-4 7h-8l-4-7zm0 16h8l4 7-4 7h-8l-4-7zm0 16h8l4 7-4 7h-8l-4-7zm0 16h8l4 7-4 7h-8l-4-7zm0 16h8l4 7-4 7h-8l-4-7zm0 16h8l4 7-4 7h-8l-4-7zm0 16h8l4 7-4 7h-8l-4-7zm0 16h8l4 7-4 7h-8l-4-7zM222 0l-4 7h-8l-4-7zm-12 9h8l4 7-4 7h-8l-4-7zm0 16h8l4 7-4 7h-8l-4-7zm0 16h8l4 7-4 7h-8l-4-7zm0 16h8l4 7-4 7h-8l-4-7zm0 16h8l4 7-4 7h-8l-4-7zm0 16h8l4 7-4 7h-8l-4-7zm0 16h8l4 7-4 7h-8l-4-7zm0 16h8l4 7h-16zM224 1h8l4 7-4 7h-8l-4-7zm0 16h8l4 7-4 7h-8l-4-7zm0 16h8l4 7-4 7h-8l-4-7zm0 16h8l4 7-4 7h-8l-4-7zm0 16h8l4 7-4 7h-8l-4-7zm0 16h8l4 7-4 7h-8l-4-7zm0 16h8l4 7-4 7h-8l-4-7zm0 16h8l4 7-4 7h-8l-4-7zM250 0l-4 7h-8l-4-7zm-12 9h8l4 7-4 7h-8l-4-7zm0 16h8l4 7-4 7h-8l-4-7zm0 16h8l4 7-4 7h-8l-4-7zm0 16h8l4 7-4 7h-8l-4-7zm0 16h8l4 7-4 7h-8l-4-7zm0 16h8l4 7-4 7h-8l-4-7zm0 16h8l4 7-4 7h-8l-4-7zm0 16h8l4 7h-16zM252 1h8l4 7-4 7h-8l-4-7zm0 16h8l4 7-4 7h-8l-4-7zm0 16h8l4 7-4 7h-8l-4-7zm0 16h8l4 7-4 7h-8l-4-7zm0 16h8l4 7-4 7h-8l-4-7zm0 16h8l4 7-4 7h-8l-4-7zm0 16h8l4 7-4 7h-8l-4-7zm0 16h8l4 7-4 7h-8l-4-7zM278 0l-4 7h-8l-4-7zm-12 9h8l4 7-4 7h-8l-4-7zm0 16h8l4 7-4 7h-8l-4-7zm0 16h8l4 7-4 7h-8l-4-7zm0 16h8l4 7-4 7h-8l-4-7zm0 16h8l4 7-4 7h-8l-4-7zm0 16h8l4 7-4 7h-8l-4-7zm0 16h8l4 7-4 7h-8l-4-7zm0 16h8l4 7h-16zM280 1h8l4 7-4 7h-8l-4-7zm0 16h8l4 7-4 7h-8l-4-7zm0 16h8l4 7-4 7h-8l-4-7zm0 16h8l4 7-4 7h-8l-4-7zm0 16h8l4 7-4 7h-8l-4-7zm0 16h8l4 7-4 7h-8l-4-7zm0 16h8l4 7-4 7h-8l-4-7zm0 16h8l4 7-4 7h-8l-4-7zM306 0l-4 7h-8l-4-7zm-12 9h8l4 7-4 7h-8l-4-7zm0 16h8l4 7-4 7h-8l-4-7zm0 16h8l4 7-4 7h-8l-4-7zm0 16h8l4 7-4 7h-8l-4-7zm0 16h8l4 7-4 7h-8l-4-7zm0 16h8l4 7-4 7h-8l-4-7zm0 16h8l4 7-4 7h-8l-4-7zm0 16h8l4 7h-16zM308 1h8l4 7-4 7h-8l-4-7zm0 16h8l4 7-4 7h-8l-4-7zm0 16h8l4 7-4 7h-8l-4-7zm0 16h8l4 7-4 7h-8l-4-7zm0 16h8l4 7-4 7h-8l-4-7zm0 16h8l4 7-4 7h-8l-4-7zm0 16h8l4 7-4 7h-8l-4-7zm0 16h8l4 7-4 7h-8l-4-7zM334 0l-4 7h-8l-4-7zm-12 9h8l4 7-4 7h-8l-4-7zm0 16h8l4 7-4 7h-8l-4-7zm0 16h8l4 7-4 7h-8l-4-7zm0 16h8l4 7-4 7h-8l-4-7zm0 16h8l4 7-4 7h-8l-4-7zm0 16h8l4 7-4 7h-8l-4-7zm0 16h8l4 7-4 7h-8l-4-7zm0 16h8l4 7h-16zM336 1h8l4 7-4 7h-8l-4-7zm0 16h8l4 7-4 7h-8l-4-7zm0 16h8l4 7-4 7h-8l-4-7zm0 16h8l4 7-4 7h-8l-4-7zm0 16h8l4 7-4 7h-8l-4-7zm0 16h8l4 7-4 7h-8l-4-7zm0 16h8l4 7-4 7h-8l-4-7zm0 16h8l4 7-4 7h-8l-4-7zM362 0l-4 7h-8l-4-7zm-12 9h8l4 7-4 7h-8l-4-7zm0 16h8l4 7-4 7h-8l-4-7zm0 16h8l4 7-4 7h-8l-4-7zm0 16h8l4 7-4 7h-8l-4-7zm0 16h8l4 7-4 7h-8l-4-7zm0 16h8l4 7-4 7h-8l-4-7zm0 16h8l4 7-4 7h-8l-4-7zm0 16h8l4 7h-16zM364 1h8l4 7-4 7h-8l-4-7zm0 16h8l4 7-4 7h-8l-4-7zm0 16h8l4 7-4 7h-8l-4-7zm0 16h8l4 7-4 7h-8l-4-7zm0 16h8l4 7-4 7h-8l-4-7zm0 16h8l4 7-4 7h-8l-4-7zm0 16h8l4 7-4 7h-8l-4-7zm0 16h8l4 7-4 7h-8l-4-7zM390 0l-4 7h-8l-4-7zm-12 9h8l4 7-4 7h-8l-4-7zm0 16h8l4 7-4 7h-8l-4-7zm0 16h8l4 7-4 7h-8l-4-7zm0 16h8l4 7-4 7h-8l-4-7zm0 16h8l4 7-4 7h-8l-4-7zm0 16h8l4 7-4 7h-8l-4-7zm0 16h8l4 7-4 7h-8l-4-7zm0 16h8l4 7h-16zM392 1h8l4 7-4 7h-8l-4-7zm0 16h8l4 7-4 7h-8l-4-7zm0 16h8l4 7-4 7h-8l-4-7zm0 16h8l4 7-4 7h-8l-4-7zm0 16h8l4 7-4 7h-8l-4-7zm0 16h8l4 7-4 7h-8l-4-7zm0 16h8l4 7-4 7h-8l-4-7zm0 16h8l4 7-4 7h-8l-4-7zM418 0l-4 7h-8l-4-7zm-12 9h8l4 7-4 7h-8l-4-7zm0 16h8l4 7-4 7h-8l-4-7zm0 16h8l4 7-4 7h-8l-4-7zm0 16h8l4 7-4 7h-8l-4-7zm0 16h8l4 7-4 7h-8l-4-7zm0 16h8l4 7-4 7h-8l-4-7zm0 16h8l4 7-4 7h-8l-4-7zm0 16h8l4 7h-16zM420 1h8l4 7-4 7h-8l-4-7zm0 16h8l4 7-4 7h-8l-4-7zm0 16h8l4 7-4 7h-8l-4-7zm0 16h8l4 7-4 7h-8l-4-7zm0 16h8l4 7-4 7h-8l-4-7zm0 16h8l4 7-4 7h-8l-4-7zm0 16h8l4 7-4 7h-8l-4-7zm0 16h8l4 7-4 7h-8l-4-7zM446 0l-4 7h-8l-4-7zm-12 9h8l4 7-4 7h-8l-4-7zm0 16h8l4 7-4 7h-8l-4-7zm0 16h8l4 7-4 7h-8l-4-7zm0 16h8l4 7-4 7h-8l-4-7zm0 16h8l4 7-4 7h-8l-4-7zm0 16h8l4 7-4 7h-8l-4-7zm0 16h8l4 7-4 7h-8l-4-7zm0 16h8l4 7h-16zM448 1h8l4 7-4 7h-8l-4-7zm0 16h8l4 7-4 7h-8l-4-7zm0 16h8l4 7-4 7h-8l-4-7zm0 16h8l4 7-4 7h-8l-4-7zm0 16h8l4 7-4 7h-8l-4-7zm0 16h8l4 7-4 7h-8l-4-7zm0 16h8l4 7-4 7h-8l-4-7zm0 16h8l4 7-4 7h-8l-4-7zM474 0l-4 7h-8l-4-7zm-12 9h8l4 7-4 7h-8l-4-7zm0 16h8l4 7-4 7h-8l-4-7zm0 16h8l4 7-4 7h-8l-4-7zm0 16h8l4 7-4 7h-8l-4-7zm0 16h8l4 7-4 7h-8l-4-7zm0 16h8l4 7-4 7h-8l-4-7zm0 16h8l4 7-4 7h-8l-4-7zm0 16h8l4 7h-16zM476 1h8l4 7-4 7h-8l-4-7zm0 16h8l4 7-4 7h-8l-4-7zm0 16h8l4 7-4 7h-8l-4-7zm0 16h8l4 7-4 7h-8l-4-7zm0 16h8l4 7-4 7h-8l-4-7zm0 16h8l4 7-4 7h-8l-4-7zm0 16h8l4 7-4 7h-8l-4-7zm0 16h8l4 7-4 7h-8l-4-7zM502 0l-4 7h-8l-4-7zm-12 9h8l4 7-4 7h-8l-4-7zm0 16h8l4 7-4 7h-8l-4-7zm0 16h8l4 7-4 7h-8l-4-7zm0 16h8l4 7-4 7h-8l-4-7zm0 16h8l4 7-4 7h-8l-4-7zm0 16h8l4 7-4 7h-8l-4-7zm0 16h8l4 7-4 7h-8l-4-7zm0 16h8l4 7h-16zM504 1h8v14h-8l-4-7zm0 16h8v14h-8l-4-7zm0 16h8v14h-8l-4-7zm0 16h8v14h-8l-4-7zm0 16h8v14h-8l-4-7zm0 16h8v14h-8l-4-7zm0 16h8v14h-8l-4-7zm0 16h8v14h-8l-4-7zM0 33h8l4 7-4 7H0Zm0 16h8l4 7-4 7H0Zm0 16h8l4 7-4 7H0Zm0 16h8l4 7-4 7H0Zm0 16h8l4 7-4 7H0Zm0 16h8l4 7-4 7H0Z"/>
</svg>
