<svg xmlns="http://www.w3.org/2000/svg" viewBox="0 0 1024 1024">
	<defs>
		<linearGradient id="a" x1="1024" x2="0" y1="0" y2="0" gradientUnits="userSpaceOnUse">
			<stop stop-color="#6928b0" offset="0"/>
			<stop stop-color="#6928b0" offset="1" stop-opacity="0"/>
		</linearGradient>
	</defs>
	<path fill="#2c0751" d="M0 0h1024v1024H0z"/>
	<path fill="url(#a)" d="m-40 982 24 42h-72v-42zm192 0 24 42H80l24-42zm192 0 24 42h-96l24-42zm192 0 24 42h-96l24-42zm192 0 24 42h-96l24-42zm192 0 24 42h-96l24-42zM56 926l24 42-24 42H8l-8-14v-56l8-14zm96-56 24 42-24 42h-48l-24-42 24-42zm96-56 24 42-24 42h-48l-24-42 24-42zm0 112 24 42-24 42h-48l-24-42 24-42zm192 0 24 42-24 42h-48l-24-42 24-42zm192 0 24 42-24 42h-48l-24-42 24-42zm192 0 24 42-24 42h-48l-24-42 24-42zm192 0 8 14v56l-8 14h-48l-24-42 24-42zM344 758l24 42-24 42h-48l-24-42 24-42zm0 112 24 42-24 42h-48l-24-42 24-42zm192 0 24 42-24 42h-48l-24-42 24-42zm192 0 24 42-24 42h-48l-24-42 24-42zm192 0 24 42-24 42h-48l-24-42 24-42zM440 702l24 42-24 42h-48l-24-42 24-42zm0 112 24 42-24 42h-48l-24-42 24-42zm192 0 24 42-24 42h-48l-24-42 24-42zm192 0 24 42-24 42h-48l-24-42 24-42zm192 0 8 14v56l-8 14h-48l-24-42 24-42zM536 646l24 42-24 42h-48l-24-42 24-42zm0 112 24 42-24 42h-48l-24-42 24-42zm192 0 24 42-24 42h-48l-24-42 24-42zm192 0 24 42-24 42h-48l-24-42 24-42zM632 590l24 42-24 42h-48l-24-42 24-42zm0 112 24 42-24 42h-48l-24-42 24-42zm192 0 24 42-24 42h-48l-24-42 24-42zm192 0 8 14v56l-8 14h-48l-24-42 24-42zM728 534l24 42-24 42h-48l-24-42 24-42zm0 112 24 42-24 42h-48l-24-42 24-42zm192 0 24 42-24 42h-48l-24-42 24-42zm-96-168 24 42-24 42h-48l-24-42 24-42zm0 112 24 42-24 42h-48l-24-42 24-42zm192 0 8 14v56l-8 14h-48l-24-42 24-42zm-96-168 24 42-24 42h-48l-24-42 24-42zm0 112 24 42-24 42h-48l-24-42 24-42zm96-168 8 14v56l-8 14h-48l-24-42 24-42zm0 112 8 14v56l-8 14h-48l-24-42 24-42z"/>
</svg>
