<svg xmlns="http://www.w3.org/2000/svg" xml:space="preserve" viewBox="0 0 512 128">
  <path fill="#7d24d3" d="M57.95 39.5H30L71.98 113l41.98-73.5H86.02L71.98 64zm0 0"/>
  <path fill="#9657e8" d="M30 39.5 15.96 64l27.95 49h56.14L128 64l-14.04-24.5L71.98 113zm0 0"/>
  <path fill="#b180fc" d="M43.91 15 30 39.5h83.96L100.06 15zm0 0"/>
  <path fill="#9657e8" d="M171.11 97.32h-4.08l-32-67.97h2.89l31.03 66.04h.24l31.5-66.04h2.9zm57.62-21.7v21.7h-2.64v-21.7l-21.54-28.24h3.01l19.97 26.31 19.72-26.3h3.01zm93.09-3.36q0 5.76-2.4 10.65-2.29 4.8-6.62 8.36-4.32 3.45-10.34 5.46-5.89 1.93-13.1 1.93-7.1 0-13.12-1.93-5.9-2.01-10.23-5.46-4.2-3.56-6.6-8.36-2.42-4.9-2.42-10.65 0-5.77 2.4-10.56 2.41-4.9 6.62-8.36 4.34-3.45 10.23-5.37 6.02-1.93 13.11-1.93 7.22 0 13.1 1.93 6.03 1.92 10.35 5.37 4.33 3.46 6.63 8.36 2.4 4.8 2.4 10.56zm-2.64 0q0-5-2.05-9.41-2.03-4.51-6-7.77-3.86-3.27-9.39-5.18-5.53-1.93-12.39-1.93-6.85 0-12.39 1.92-5.53 1.92-9.38 5.18-3.85 3.27-5.89 7.77-2.05 4.42-2.05 9.42 0 5.09 2.05 9.5 2.04 4.42 5.89 7.77 3.85 3.36 9.38 5.28 5.54 1.92 12.4 1.92 6.85 0 12.38-1.92t9.38-5.27q3.98-3.36 6.01-7.78 2.05-4.42 2.05-9.5zm22.13 25.06V47.39h2.65v48h30.56v1.93zm46.91 0V47.39h36.57v1.92h-33.91v21.12h31.86v1.92h-31.86V95.4h35.25v1.93zm70.74-48.01v48h-2.66v-48h-21.16V47.4H480v1.92z" aria-label="Vyolet"/>
</svg>
