<svg xmlns="http://www.w3.org/2000/svg" viewBox="0 0 1024 1024"><defs><linearGradient id="a" x1="30.5" x2="30.5" y1="0" y2="65" gradientTransform="translate(32) scale(15.75385)" gradientUnits="userSpaceOnUse"><stop offset="0" stop-color="#6364ff"/><stop offset="1" stop-color="#563acc"/></linearGradient></defs><path fill="url(#a)" d="M990 227A263 263 0 0 0 765 13c-19-2-92-13-260-13-172 0-205 11-227 13A280 280 0 0 0 41 217c-11 57-12 117-9 174 3 78 3 159 11 239 5 52 13 104 25 158 27 94 122 173 211 204 110 38 229 41 341 8 25-8 53-15 75-31v-80h-1c-66 15-133 22-200 22-115 0-147-56-155-79-7-21-11-42-12-63 66 16 130 23 197 23h47c68-1 137-4 201-17h5c104-20 202-83 211-241l2-71c0-22 8-154 0-236zm0 0"/><path fill="#fff" d="M826 350v274H717V358c0-56-23-84-71-84-52 0-78 33-78 101v145H461V375c0-68-26-101-79-101-48 0-70 28-70 84v266H204V350c0-55 15-100 42-133 32-33 70-50 117-50 55 0 98 22 126 63l27 47 26-47c28-42 76-66 126-63 48 0 86 17 115 50 29 32 43 78 43 133zm0 0"/></svg>