<?xml version="1.0" encoding="UTF-8" standalone="no"?>
<!-- Created with Inkscape (http://www.inkscape.org/) -->

<svg
   width="1200"
   height="630"
   viewBox="0 0 1200 630"
   version="1.1"
   id="github-profile"
   inkscape:version="1.2.2 (03908c27, 2023-01-22)"
   sodipodi:docname="opengraph-vyolet-1200x630.inkscape.svg"
   inkscape:export-filename="opengraph-vyolet-1200x630.png"
   inkscape:export-xdpi="96"
   inkscape:export-ydpi="96"
   xml:space="preserve"
   xmlns:inkscape="http://www.inkscape.org/namespaces/inkscape"
   xmlns:sodipodi="http://sodipodi.sourceforge.net/DTD/sodipodi-0.dtd"
   xmlns:xlink="http://www.w3.org/1999/xlink"
   xmlns="http://www.w3.org/2000/svg"
   xmlns:svg="http://www.w3.org/2000/svg"><sodipodi:namedview
     id="namedview7"
     pagecolor="#ffffff"
     bordercolor="#000000"
     borderopacity="0.25"
     inkscape:showpageshadow="2"
     inkscape:pageopacity="0.0"
     inkscape:pagecheckerboard="false"
     inkscape:deskcolor="#d1d1d1"
     inkscape:document-units="mm"
     showgrid="false"
     inkscape:zoom="4.7211469"
     inkscape:cx="151.65806"
     inkscape:cy="44.374811"
     inkscape:window-width="2260"
     inkscape:window-height="1039"
     inkscape:window-x="2660"
     inkscape:window-y="305"
     inkscape:window-maximized="0"
     inkscape:current-layer="github-profile"><inkscape:grid
       type="xygrid"
       id="grid9"
       originx="-79.822426"
       originy="-10.586779" /></sodipodi:namedview><style
     id="vyolet-sprint-2023">
/* oklch values should be listed last, but Inkscape 1.2.2 don't like that */
.vyolet-main       {fill: oklch(50% 0.24 300);    fill: #7d24d3;}
.vyolet-medium     {fill: oklch(60% 0.21 300);    fill: #9657e8;}
.vyolet-light      {fill: oklch(70% 0.18 300);    fill: #b180fc;}
.vyolet-text-dark  {fill: oklch(35% 0.05 300);    fill: #3e3451;}
.vyolet-text-light {fill: oklch(80% 0.11 300);    fill: #c8aefa;}
.vyolet-pattern    {fill: oklch(45% 0.20 300);    fill: #6928b0;
                                            stop-color: #6928b0}
.vyolet-bg-dark    {fill: oklch(25% 0.12 300);    fill: #2c0751;}
.vyolet-bg-light   {fill: oklch(95% 0.02 300);    fill: #f0ecfa;}
.vyolet-inner      {fill: oklch(35% 0.05 300);    fill: #3e3451;}
.vyolet-outline    {stroke: oklch(35% 0.05 300);stroke: #3e3451; fill: none;
                    stroke-width: 28; stroke-linecap: round; stroke-linejoin: round;}
.vyolet-symbol     {stroke: oklch(35% 0.05 300);stroke: #3e3451; fill: none;
                    stroke-width: 28; stroke-linecap: butt; stroke-linejoin: round;}
.vyolet-logotype   {font-family: 'Avenir Next', sans-serif; font-weight: 100;
                    font-variant: small-caps; vertical-align: middle;
                    text-align: center; text-anchor: middle}
</style><defs
     id="defs"><linearGradient
       id="vyolet-gradient"
       x1="254"
       y1="0"
       x2="127"
       y2="0"
       gradientUnits="userSpaceOnUse"
       gradientTransform="translate(0.07514703,-17.67052)"><stop
         style="stop-opacity:1;"
         class="vyolet-pattern"
         offset="0"
         id="gradient-start" /><stop
         style="stop-opacity:0.1;"
         class="vyolet-pattern"
         offset="1"
         id="gradient-stop" /></linearGradient><linearGradient
       inkscape:collect="always"
       xlink:href="#vyolet-gradient"
       id="linearGradient3844"
       gradientUnits="userSpaceOnUse"
       gradientTransform="translate(0.07514703,-17.67052)"
       x1="254"
       y1="0"
       x2="127"
       y2="0" /><linearGradient
       inkscape:collect="always"
       xlink:href="#vyolet-gradient"
       id="linearGradient3846"
       gradientUnits="userSpaceOnUse"
       gradientTransform="translate(0.07514703,-17.67052)"
       x1="254"
       y1="0"
       x2="127"
       y2="0" /><linearGradient
       inkscape:collect="always"
       xlink:href="#vyolet-gradient"
       id="linearGradient3848"
       gradientUnits="userSpaceOnUse"
       gradientTransform="translate(0.07514703,-17.67052)"
       x1="254"
       y1="0"
       x2="127"
       y2="0" /><linearGradient
       inkscape:collect="always"
       xlink:href="#vyolet-gradient"
       id="linearGradient3850"
       gradientUnits="userSpaceOnUse"
       gradientTransform="translate(0.07514703,-17.67052)"
       x1="254"
       y1="0"
       x2="127"
       y2="0" /><linearGradient
       inkscape:collect="always"
       xlink:href="#vyolet-gradient"
       id="linearGradient3852"
       gradientUnits="userSpaceOnUse"
       gradientTransform="translate(0.07514703,-17.67052)"
       x1="254"
       y1="0"
       x2="127"
       y2="0" /><linearGradient
       inkscape:collect="always"
       xlink:href="#vyolet-gradient"
       id="linearGradient3854"
       gradientUnits="userSpaceOnUse"
       gradientTransform="translate(0.07514703,-17.67052)"
       x1="254"
       y1="0"
       x2="127"
       y2="0" /><linearGradient
       inkscape:collect="always"
       xlink:href="#vyolet-gradient"
       id="linearGradient3856"
       gradientUnits="userSpaceOnUse"
       gradientTransform="translate(0.07514703,-17.67052)"
       x1="254"
       y1="0"
       x2="127"
       y2="0" /><linearGradient
       inkscape:collect="always"
       xlink:href="#vyolet-gradient"
       id="linearGradient3858"
       gradientUnits="userSpaceOnUse"
       gradientTransform="translate(0.07514703,-17.67052)"
       x1="254"
       y1="0"
       x2="127"
       y2="0" /><linearGradient
       inkscape:collect="always"
       xlink:href="#vyolet-gradient"
       id="linearGradient3860"
       gradientUnits="userSpaceOnUse"
       gradientTransform="translate(0.07514703,-17.67052)"
       x1="254"
       y1="0"
       x2="127"
       y2="0" /><linearGradient
       inkscape:collect="always"
       xlink:href="#vyolet-gradient"
       id="linearGradient3862"
       gradientUnits="userSpaceOnUse"
       gradientTransform="translate(0.07514703,-17.67052)"
       x1="254"
       y1="0"
       x2="127"
       y2="0" /><linearGradient
       inkscape:collect="always"
       xlink:href="#vyolet-gradient"
       id="linearGradient3864"
       gradientUnits="userSpaceOnUse"
       gradientTransform="translate(0.07514703,-17.67052)"
       x1="254"
       y1="0"
       x2="127"
       y2="0" /><linearGradient
       inkscape:collect="always"
       xlink:href="#vyolet-gradient"
       id="linearGradient3866"
       gradientUnits="userSpaceOnUse"
       gradientTransform="translate(0.07514703,-17.67052)"
       x1="254"
       y1="0"
       x2="127"
       y2="0" /><linearGradient
       inkscape:collect="always"
       xlink:href="#vyolet-gradient"
       id="linearGradient3868"
       gradientUnits="userSpaceOnUse"
       gradientTransform="translate(0.07514703,-17.67052)"
       x1="254"
       y1="0"
       x2="127"
       y2="0" /><linearGradient
       inkscape:collect="always"
       xlink:href="#vyolet-gradient"
       id="linearGradient3870"
       gradientUnits="userSpaceOnUse"
       gradientTransform="translate(0.07514703,-17.67052)"
       x1="254"
       y1="0"
       x2="127"
       y2="0" /><linearGradient
       inkscape:collect="always"
       xlink:href="#vyolet-gradient"
       id="linearGradient3872"
       gradientUnits="userSpaceOnUse"
       gradientTransform="translate(0.07514703,-17.67052)"
       x1="254"
       y1="0"
       x2="127"
       y2="0" /><linearGradient
       inkscape:collect="always"
       xlink:href="#vyolet-gradient"
       id="linearGradient3874"
       gradientUnits="userSpaceOnUse"
       gradientTransform="translate(0.07514703,-17.67052)"
       x1="254"
       y1="0"
       x2="127"
       y2="0" /><linearGradient
       inkscape:collect="always"
       xlink:href="#vyolet-gradient"
       id="linearGradient3876"
       gradientUnits="userSpaceOnUse"
       gradientTransform="translate(0.07514703,-17.67052)"
       x1="254"
       y1="0"
       x2="127"
       y2="0" /><linearGradient
       inkscape:collect="always"
       xlink:href="#vyolet-gradient"
       id="linearGradient3878"
       gradientUnits="userSpaceOnUse"
       gradientTransform="translate(0.07514703,-17.67052)"
       x1="254"
       y1="0"
       x2="127"
       y2="0" /><linearGradient
       inkscape:collect="always"
       xlink:href="#vyolet-gradient"
       id="linearGradient3880"
       gradientUnits="userSpaceOnUse"
       gradientTransform="translate(0.07514703,-17.67052)"
       x1="254"
       y1="0"
       x2="127"
       y2="0" /><linearGradient
       inkscape:collect="always"
       xlink:href="#vyolet-gradient"
       id="linearGradient3882"
       gradientUnits="userSpaceOnUse"
       gradientTransform="translate(0.07514703,-17.67052)"
       x1="254"
       y1="0"
       x2="127"
       y2="0" /><linearGradient
       inkscape:collect="always"
       xlink:href="#vyolet-gradient"
       id="linearGradient3884"
       gradientUnits="userSpaceOnUse"
       gradientTransform="translate(0.07514703,-17.67052)"
       x1="254"
       y1="0"
       x2="127"
       y2="0" /></defs><rect
     id="background"
     class="vyolet-bg-dark"
     width="1200"
     height="630"
     x="0"
     y="0"
     style="stroke-width:1" /><g
     id="hexagons"
     style="fill:url(#linearGradient3884)"
     transform="matrix(5.7190083,0,0,5.7190083,-285.60756,343.59504)"><path
       d="m 171,33 4,7 -4,7 h -8 l -4,-7 4,-7 z"
       id="l3-c2"
       style="fill:url(#linearGradient3844)" /><path
       d="m 201,15 4,7 -4,7 h -8 l -4,-7 4,-7 z"
       id="l2-c4"
       style="fill:url(#linearGradient3846)" /><path
       d="m 186,24 4,7 -4,7 h -8 l -4,-7 4,-7 z"
       id="l3-c3"
       style="fill:url(#linearGradient3848)" /><path
       d="m 201,33 4,7 -4,7 h -8 l -4,-7 4,-7 z"
       id="l3-c4"
       style="fill:url(#linearGradient3850)" /><path
       d="m 231,15 4,7 -4,7 h -8 l -4,-7 4,-7 z"
       id="l2-c6"
       style="fill:url(#linearGradient3852)" /><path
       d="m 231,-3 4,7 -4,7 h -8 l -4,-7 4,-7 z"
       id="l1-c6"
       style="fill:url(#linearGradient3854)" /><path
       d="m 216,6 4,7 -4,7 h -8 l -4,-7 4,-7 z"
       id="l2-c5"
       style="fill:url(#linearGradient3856)" /><path
       d="m 216,24 4,7 -4,7 h -8 l -4,-7 4,-7 z"
       id="l3-c5"
       style="fill:url(#linearGradient3858)" /><path
       d="m 231,33 4,7 -4,7 h -8 l -4,-7 4,-7 z"
       id="l3-c6"
       style="fill:url(#linearGradient3860)" /><path
       d="m 261,15 4,7 -4,7 h -8 l -4,-7 4,-7 z"
       id="l2-c8"
       style="fill:url(#linearGradient3862)" /><path
       d="m 261,-3 4,7 -4,7 h -8 l -4,-7 4,-7 z"
       id="l1-c8"
       style="fill:url(#linearGradient3864)" /><path
       d="m 261,-21 4,7 -4,7 h -8 l -4,-7 4,-7 z"
       id="l1-c8-8"
       style="fill:url(#linearGradient3866)" /><path
       d="m 246,6 4,7 -4,7 h -8 l -4,-7 4,-7 z"
       id="l2-c7"
       style="fill:url(#linearGradient3868)" /><path
       d="m 246,-12 4,7 -4,7 h -8 l -4,-7 4,-7 z"
       id="l1-c7"
       style="fill:url(#linearGradient3870)" /><path
       d="m 246,24 4,7 -4,7 h -8 l -4,-7 4,-7 z"
       id="l3-c7"
       style="fill:url(#linearGradient3872)" /><path
       d="m 261,33 4,7 -4,7 h -8 l -4,-7 4,-7 z"
       id="l3-c8"
       style="fill:url(#linearGradient3874)" /><path
       d="m 246,42 4,7 -4,7 h -8 l -4,-7 4,-7 z"
       id="l4-c7"
       style="fill:url(#linearGradient3876)" /><path
       d="m 216,42 4,7 -4,7 h -8 l -4,-7 4,-7 z"
       id="l4-c5"
       style="fill:url(#linearGradient3878)" /><path
       d="m 186,42 4,7 -4,7 h -8 l -4,-7 4,-7 z"
       id="l4-c3"
       style="fill:url(#linearGradient3880)" /><path
       d="m 156,42 4,7 -4,7 h -8 l -4,-7 4,-7 z"
       id="l4-c1"
       style="fill:url(#linearGradient3882)" /></g><style
     id="vyolet-sprint-2023-6">
* oklch values should be listed last, but Inkscape 1.2.2 don't like that */
.vyolet-main       {fill: oklch(50% 0.24 300); fill: #7d24d3;}
.vyolet-medium     {fill: oklch(60% 0.21 300); fill: #9657e8;}
.vyolet-light      {fill: oklch(70% 0.18 300); fill: #b180fc;}
.vyolet-text-dark  {fill: oklch(35% 0.05 300); fill: #3e3451;}
.vyolet-text-light {fill: oklch(80% 0.11 300); fill: #c8aefa;}
.vyolet-inner      {fill: oklch(35% 0.05 300); fill: #3e3451;}
.vyolet-outline    {stroke: oklch(35% 0.05 300);stroke: #3e3451; fill: none;
                    stroke-width: 28; stroke-linecap: round; stroke-linejoin: round;}
.vyolet-symbol     {stroke: oklch(35% 0.05 300);stroke: #3e3451; fill: none;
                    stroke-width: 28; stroke-linecap: butt; stroke-linejoin: round;}
.vyolet-logotype   {font-family: 'Avenir Next', sans-serif; font-weight: 100;
                    font-variant: small-caps;  vertical-align: middle;}
</style><g
     id="g501"
     transform="matrix(1.8813287,0,0,1.8813287,133.46292,39.500763)"
     style="stroke-width:0.531539"><g
       id="g1169"
       style="display:none;stroke-width:0.531539"
       transform="translate(8)"><path
         fill="#7d24d3"
         d="m 36,113 h 56 l 28,-49 -28,-49 z m 0,0"
         id="path1154"
         style="stroke-width:0.33212" /><path
         fill="#9657e8"
         d="m 8,64 28,-49 28,49 -28,49 z m 0,0"
         id="path1156"
         style="stroke-width:0.33212" /><path
         fill="#b180fc"
         d="m 36,15 28,49 28,-49 z m 0,0"
         id="path1158"
         style="stroke-width:0.33212" /></g><g
       id="vyolet"
       transform="matrix(0.12311558,0,0,0.12311558,8.9472341,0.96482304)"
       style="stroke-width:0.531539"><path
         fill="#7d24d3"
         d="m 398,313 h -227 l 341,597 341,-597 h -227 l -114,199 z m 0,0"
         id="path418"
         style="stroke-width:0.33212" /><path
         fill="#9657e8"
         d="m 171,313 -114,199 227,398 h 456 l 227,-398 -114,-199 -341,597 z m 0,0"
         id="path420"
         style="stroke-width:0.33212" /><path
         fill="#b180fc"
         d="m 284,114 -113,199 h 682 l -113,-199 z m 0,0"
         id="path422"
         style="stroke-width:0.33212" /></g><g
       aria-label="Vyolet"
       transform="scale(1.1193491,0.89337631)"
       id="logotype-font"
       style="fill:#ffffff;stroke-width:0.531539"><path
         d="m 152.86982,108.92609 h -3.65358 l -28.58382,-76.080268 h 2.57899 l 27.72416,73.931108 h 0.21492 l 28.15399,-73.931108 h 2.579 z"
         id="path439"
         style="fill:#ffffff;stroke-width:0.531539" /><path
         d="m 204.34207,84.640578 v 24.285512 h -2.36408 v -24.285512 l -19.23498,-31.592652 h 2.68645 l 17.83803,29.443492 17.62311,-29.443492 h 2.68645 z"
         id="path441"
         style="fill:#ffffff;stroke-width:0.531539" /><path
         d="m 287.51429,80.879548 q 0,6.44748 -2.14916,11.927838 -2.0417,5.3729 -5.91019,9.348844 -3.86849,3.86849 -9.24139,6.12511 -5.26544,2.14916 -11.71292,2.14916 -6.34002,0 -11.71292,-2.14916 -5.26544,-2.25662 -9.13393,-6.12511 -3.76103,-3.975944 -5.91019,-9.348844 -2.14916,-5.480358 -2.14916,-11.927838 0,-6.44748 2.14916,-11.82038 2.14916,-5.480358 5.91019,-9.348846 3.86849,-3.868488 9.13393,-6.017648 5.3729,-2.14916 11.71292,-2.14916 6.44748,0 11.71292,2.14916 5.3729,2.14916 9.24139,6.017648 3.86849,3.868488 5.91019,9.348846 2.14916,5.3729 2.14916,11.82038 z m -2.36408,0 q 0,-5.587816 -1.82678,-10.530884 -1.82679,-5.050526 -5.3729,-8.704098 -3.43866,-3.653572 -8.38173,-5.802732 -4.94306,-2.14916 -11.06817,-2.14916 -6.12511,0 -11.06817,2.14916 -4.94307,2.14916 -8.38173,5.802732 -3.43865,3.653572 -5.26544,8.704098 -1.82679,4.943068 -1.82679,10.530884 0,5.695274 1.82679,10.638342 1.82679,4.943068 5.26544,8.7041 3.43866,3.76103 8.38173,5.91019 4.94306,2.14916 11.06817,2.14916 6.12511,0 11.06817,-2.14916 4.94307,-2.14916 8.38173,-5.91019 3.54611,-3.761032 5.3729,-8.7041 1.82678,-4.943068 1.82678,-10.638342 z"
         id="path443"
         style="fill:#ffffff;stroke-width:0.531539" /><path
         d="m 304.92232,108.92609 v -55.878164 h 2.36407 v 53.729004 h 27.29433 v 2.14916 z"
         id="path445"
         style="fill:#ffffff;stroke-width:0.531539" /><path
         d="m 346.83088,108.92609 v -55.878164 h 32.66724 v 2.14916 h -30.30316 v 23.64076 h 28.47637 v 2.14916 h -28.47637 v 25.789924 h 31.48519 v 2.14916 z"
         id="path447"
         style="fill:#ffffff;stroke-width:0.531539" /><path
         d="m 410.01611,55.197086 v 53.729004 h -2.36408 v -53.729004 h -18.91261 v -2.14916 h 40.08184 v 2.14916 z"
         id="path449"
         style="fill:#ffffff;stroke-width:0.531539" /></g><path
       id="logotype-path"
       d="m 477.11999,97.311996 -33.792,-47.04 h -0.192 v 47.04 h -2.112 v -49.92 h 2.88 l 33.792,47.04 h 0.192 v -47.04 h 2.112 v 49.92 z m -50.49586,0 -5.664,-13.92 h -28.416 l -6.048,13.92 h -2.208 l 21.6,-49.92 h 2.112 l 20.928,49.92 z m -19.68,-47.712 -13.632,31.872 h 26.784 z m -36.86398,47.712 v -49.92 h 2.112 v 49.92 z m -17.95188,0 -14.496,-24.672 h -11.328 v 24.672 h -2.112 v -49.92 h 13.44 q 2.976,0 5.856,0.672 2.88,0.576 5.184,2.112 2.304,1.44 3.648,3.936 1.44,2.4 1.44,6.048 0,3.264 -1.248,5.568 -1.152,2.304 -3.168,3.744 -1.92,1.44 -4.416,2.208 -2.496,0.672 -5.088,0.864 l 14.688,24.768 z m -0.48,-37.152 q 0,-3.072 -1.248,-5.184 -1.152,-2.112 -3.168,-3.36 -1.92,-1.248 -4.512,-1.728 -2.592,-0.576 -5.472,-0.576 h -10.944 v 21.408 h 11.52 q 6.72,0 10.272,-2.688 3.552,-2.688 3.552,-7.872 z m -43.00786,12.096 q 0,5.76 -1.92,10.656 -1.824,4.8 -5.28,8.352 -3.456,3.456 -8.256,5.472 -4.704,1.92 -10.464,1.92 -5.664,0 -10.464,-1.92 -4.704,-2.016 -8.16,-5.472 -3.36,-3.552 -5.28,-8.352 -1.92,-4.896 -1.92,-10.656 0,-5.76 1.92,-10.56 1.92,-4.896 5.28,-8.352 3.456,-3.456 8.16,-5.376 4.8,-1.92 10.464,-1.92 5.76,0 10.464,1.92 4.8,1.92 8.256,5.376 3.456,3.456 5.28,8.352 1.92,4.8 1.92,10.56 z m -2.112,0 q 0,-4.992 -1.632,-9.408 -1.632,-4.512 -4.8,-7.776 -3.072,-3.264 -7.488,-5.184 -4.416,-1.92 -9.888,-1.92 -5.472,0 -9.888,1.92 -4.416,1.92 -7.488,5.184 -3.072,3.264 -4.704,7.776 -1.632,4.416 -1.632,9.408 0,5.088 1.632,9.504 1.632,4.416 4.704,7.776 3.072,3.36 7.488,5.28 4.416,1.92 9.888,1.92 5.472,0 9.888,-1.92 4.416,-1.92 7.488,-5.28 3.168,-3.36 4.8,-7.776 1.632,-4.416 1.632,-9.504 z m -71.90384,-22.944 v 48 h -2.112 v -48 h -16.896 v -1.92 h 35.808 v 1.92 z m -24.47975,35.904 q 0,3.264 -1.248,5.76 -1.248,2.496 -3.36,4.224 -2.016,1.728 -4.8,2.592 -2.784,0.864 -5.76,0.864 -4.608,0 -8.448,-1.632 -3.84,-1.632 -6.336,-4.608 l 1.632,-1.44 q 2.496,2.784 5.856,4.224 3.456,1.44 7.2,1.44 2.592,0 4.992,-0.672 2.4,-0.768 4.128,-2.208 1.824,-1.44 2.88,-3.552 1.152,-2.112 1.152,-4.896 0,-2.88 -1.152,-4.8 -1.056,-1.92 -2.976,-3.264 -1.824,-1.344 -4.224,-2.208 -2.304,-0.96 -4.704,-1.728 -2.976,-0.96 -5.568,-2.016 -2.496,-1.056 -4.416,-2.592 -1.824,-1.632 -2.88,-3.84 -1.056,-2.208 -1.056,-5.376 0,-3.168 1.248,-5.664 1.248,-2.496 3.36,-4.224 2.112,-1.728 4.896,-2.592 2.784,-0.96 5.856,-0.96 4.032,0 7.392,1.536 3.36,1.44 5.472,4.128 l -1.632,1.44 q -1.92,-2.496 -4.896,-3.744 -2.88,-1.344 -6.432,-1.344 -2.496,0 -4.896,0.768 -2.304,0.672 -4.128,2.112 -1.824,1.44 -2.976,3.552 -1.152,2.112 -1.152,4.896 0,2.784 1.056,4.704 1.056,1.92 2.688,3.264 1.728,1.344 3.84,2.304 2.208,0.864 4.416,1.536 3.168,1.056 5.856,2.208 2.784,1.056 4.8,2.688 2.016,1.536 3.168,3.744 1.152,2.208 1.152,5.376 z m -50.87981,-17.664 v 29.76 h -2.112 v -29.76 l -23.328,-38.208 h 2.496 l 21.984,36.096 21.888,-36.096 h 2.4 z"
       class="vyolet-logotype vyolet-medium"
       aria-label="Ystorian"
       style="display:none;fill:#ffffff;stroke-width:0.531539" /></g></svg>
