<svg xmlns="http://www.w3.org/2000/svg" viewBox="0 0 32 32">
  <path fill="currentColor" d="M15.8 0c-5.4 0-6.4.3-7.1.4a8.8 8.8 0 0 0-7.4 6.4 62.7 62.7 0 0 0 0 12.9c.2 1.6.4 3.3.8 5C3 27.6 6 30 8.7 31c3.5 1.2 7.2 1.3 10.7.3.8-.3 1.6-.5 2.3-1v-2.5c-2 .5-4.2.7-6.3.7-3.6 0-4.6-1.7-4.8-2.5-.2-.6-.4-1.3-.4-2 2 .6 4 .8 6.2.8h1.4a26 26 0 0 0 6.3-.6h.2c3.2-.6 6.3-2.5 6.6-7.5v-2.2c0-.7.3-4.8 0-7.4a8.2 8.2 0 0 0-7-6.7C23.3.4 21 0 15.8 0zm4.8 5.2h.3c1.5 0 2.7.6 3.6 1.6a6 6 0 0 1 1.3 4.2v8.5h-3.4v-8.3c0-1.8-.7-2.6-2.2-2.6-1.6 0-2.4 1-2.4 3.1v4.6h-3.4v-4.6c0-2-.8-3.1-2.5-3.1-1.5 0-2.2.8-2.2 2.6v8.3H6.4V11c0-1.8.4-3.2 1.3-4.2a5 5 0 0 1 3.6-1.6c1.8 0 3.1.7 4 2l.8 1.5.8-1.5c.9-1.2 2.2-2 3.7-2z"/>
</svg>
